<?xml version="1.0" encoding="utf-8"?>
<!-- Generator: Adobe Illustrator 21.1.0, SVG Export Plug-In . SVG Version: 6.00 Build 0)  -->
<svg version="1.1" id="Layer_1" xmlns="http://www.w3.org/2000/svg" xmlns:xlink="http://www.w3.org/1999/xlink" x="0px" y="0px"
	 viewBox="0 0 930.8 240" style="enable-background:new 0 0 930.8 240;" xml:space="preserve">
<style type="text/css">
	.st0{fill:#FFFFFF;}
</style>
<g>
	<path class="st0" d="M705.7,166H213.2c-1,0-1.8-0.8-1.8-1.8l0,0c0-1,0.8-1.8,1.8-1.8h492.5c1,0,1.8,0.8,1.8,1.8l0,0
		C707.5,165.2,706.7,166,705.7,166z"/>
	<g>
		<g>
			<path class="st0" d="M261,221.2L261,221.2c0-6.2,4.7-11.3,11.4-11.3c6.7,0,11.3,5.1,11.3,11.2v0.1c0,6.1-4.7,11.2-11.4,11.2
				S261,227.3,261,221.2z M279.7,221.2L279.7,221.2c0-4.3-3.1-7.8-7.4-7.8s-7.3,3.4-7.3,7.7v0.1c0,4.2,3.1,7.7,7.4,7.7
				C276.7,228.8,279.7,225.4,279.7,221.2z"/>
			<path class="st0" d="M286.7,228.8l2.3-2.7c2.1,1.8,4.2,2.8,6.9,2.8c2.4,0,3.8-1.1,3.8-2.7v-0.1c0-1.5-0.9-2.4-4.9-3.3
				c-4.6-1.1-7.2-2.5-7.2-6.5v-0.1c0-3.7,3.1-6.3,7.4-6.3c3.2,0,5.7,1,7.9,2.7l-2,2.9c-2-1.5-3.9-2.2-5.9-2.2
				c-2.2,0-3.5,1.1-3.5,2.6v0.1c0,1.7,1,2.4,5.2,3.4c4.6,1.1,6.9,2.8,6.9,6.4v0.1c0,4.1-3.2,6.5-7.8,6.5
				C292.5,232.3,289.4,231.1,286.7,228.8z"/>
			<path class="st0" d="M308,210.3h3.8v18.2h11.4v3.5H308V210.3z"/>
			<path class="st0" d="M324.4,221.2L324.4,221.2c0-6.2,4.7-11.3,11.4-11.3c6.7,0,11.3,5.1,11.3,11.2v0.1c0,6.1-4.7,11.2-11.4,11.2
				S324.4,227.3,324.4,221.2z M343.1,221.2L343.1,221.2c0-4.3-3.1-7.8-7.4-7.8s-7.3,3.4-7.3,7.7v0.1c0,4.2,3.1,7.7,7.4,7.7
				C340.1,228.8,343.1,225.4,343.1,221.2z"/>
			<path class="st0" d="M359.6,228.8l2.3-2.7c2.1,1.8,4.2,2.8,6.9,2.8c2.4,0,3.8-1.1,3.8-2.7v-0.1c0-1.5-0.9-2.4-4.9-3.3
				c-4.6-1.1-7.2-2.5-7.2-6.5v-0.1c0-3.7,3.1-6.3,7.4-6.3c3.2,0,5.7,1,7.9,2.7l-2,2.9c-2-1.5-3.9-2.2-5.9-2.2
				c-2.2,0-3.5,1.1-3.5,2.6v0.1c0,1.7,1,2.4,5.2,3.4c4.6,1.1,6.9,2.8,6.9,6.4v0.1c0,4.1-3.2,6.5-7.8,6.5
				C365.3,232.3,362.2,231.1,359.6,228.8z"/>
			<path class="st0" d="M385.7,213.8h-6.9v-3.5h17.6v3.5h-6.9V232h-3.8V213.8z"/>
			<path class="st0" d="M398.3,221.2L398.3,221.2c0-6.2,4.7-11.3,11.4-11.3c6.7,0,11.3,5.1,11.3,11.2v0.1c0,6.1-4.7,11.2-11.4,11.2
				S398.3,227.3,398.3,221.2z M417,221.2L417,221.2c0-4.3-3.1-7.8-7.4-7.8s-7.3,3.4-7.3,7.7v0.1c0,4.2,3.1,7.7,7.4,7.7
				C414,228.8,417,225.4,417,221.2z"/>
			<path class="st0" d="M424.7,221.2L424.7,221.2c0-6.2,4.6-11.3,11.2-11.3c4,0,6.4,1.4,8.5,3.4l-2.5,2.8c-1.7-1.6-3.6-2.7-6.1-2.7
				c-4.1,0-7.2,3.4-7.2,7.7v0.1c0,4.2,3,7.7,7.2,7.7c2.7,0,4.4-1.1,6.2-2.8l2.4,2.5c-2.3,2.4-4.7,3.8-8.8,3.8
				C429.4,232.3,424.7,227.4,424.7,221.2z"/>
			<path class="st0" d="M448.5,210.3h3.8v10.9l10.3-10.9h4.7l-9.1,9.3l9.5,12.4h-4.7l-7.4-9.8l-3.4,3.5v6.3h-3.8V210.3z"/>
			<path class="st0" d="M480.3,210.3h16.1v3.4h-12.3v5.6H495v3.4h-10.9v5.8h12.4v3.4h-16.2V210.3z"/>
			<path class="st0" d="M519.5,210.3l-7.6,10.6l7.9,11.1h-4.5l-5.7-8.3l-5.7,8.3h-4.4l7.8-11l-7.5-10.7h4.5l5.4,7.9l5.4-7.9H519.5z"
				/>
			<path class="st0" d="M521.2,221.2L521.2,221.2c0-6.2,4.6-11.3,11.2-11.3c4,0,6.4,1.4,8.5,3.4l-2.5,2.8c-1.7-1.6-3.6-2.7-6.1-2.7
				c-4.1,0-7.2,3.4-7.2,7.7v0.1c0,4.2,3,7.7,7.2,7.7c2.7,0,4.4-1.1,6.2-2.8l2.4,2.5c-2.3,2.4-4.7,3.8-8.8,3.8
				C525.9,232.3,521.2,227.4,521.2,221.2z"/>
			<path class="st0" d="M545,210.3h3.8v9h10.4v-9h3.8V232h-3.8v-9.1h-10.4v9.1H545V210.3z"/>
			<path class="st0" d="M576.3,210.1h3.5l9.5,21.9h-4l-2.2-5.2h-10.3l-2.2,5.2h-3.9L576.3,210.1z M581.7,223.4l-3.8-8.7l-3.7,8.7
				H581.7z"/>
			<path class="st0" d="M593.1,210.3h3.5l11.6,15v-15h3.8V232h-3.2l-12-15.4V232h-3.8V210.3z"/>
			<path class="st0" d="M616.6,221.2L616.6,221.2c0-6.1,4.7-11.3,11.2-11.3c3.8,0,6.1,1.1,8.3,2.9l-2.4,2.9
				c-1.7-1.4-3.3-2.3-6.1-2.3c-4,0-7,3.5-7,7.7v0.1c0,4.5,2.9,7.8,7.4,7.8c2,0,3.9-0.7,5.2-1.6v-4.1h-5.5v-3.3h9.2v9.1
				c-2.1,1.8-5.2,3.4-9.1,3.4C621.1,232.3,616.6,227.5,616.6,221.2z"/>
			<path class="st0" d="M641.9,210.3H658v3.4h-12.3v5.6h10.9v3.4h-10.9v5.8h12.4v3.4h-16.2V210.3z"/>
		</g>
	</g>
	<g>
		<g>
			<g>
				<path class="st0" d="M122.2,66.1c0,37.2-28.4,58.8-61.5,58.8C24.2,124.9,0,101.7,0,68.9c0-33.1,25.6-56.6,61-56.6
					C97,12.3,122.2,36,122.2,66.1z M19,69.8c0,31.6,17,49.9,42.3,49.9c30.6,0,41.9-27.1,41.9-53.8c0-28.6-16.9-48.4-42.8-48.4
					C37.9,17.5,19,34.7,19,69.8z"/>
				<path class="st0" d="M177.7,12.3c12.2,0,18.5,3.3,22.2,3.3c0.8,0,1.7-0.2,2.2-0.2c1,0,1.5,0.8,1.5,6.5c0,6.7-0.3,14.2-0.7,16.7
					c-0.2,1.2-0.7,2-2,2c-1,0-1.7-0.7-2-2.7c-2.3-13.4-8.7-20.9-23-20.9c-10.7,0-19.4,6.8-19.4,16.4c0,26.6,55.8,22.5,55.8,60
					c0,18-15.5,31.4-36.7,31.4c-10.2,0-25.6-3-32.9-8c-0.8-3.3-1.3-7.5-1.3-11.5c0-7.2,0.8-11.7,1.2-12.7s0.8-2.2,2.3-2.2
					c1.3,0,2,1.2,2.3,3.2c2.3,14.9,11,26.4,28.2,26.4c16.2,0,24.4-9.4,24.4-20.2c0-27.9-55.1-25.1-55.1-59
					C144.6,23.3,159.3,12.3,177.7,12.3z"/>
				<path class="st0" d="M255.8,15.5c6.7,0,22.5-0.7,24.2-0.7c1.7,0,3,0.7,3,2.2s-1,2.3-3.5,2.5c-7.2,0.5-12,1.8-15.5,4v80.2
					c0,11.9,0.3,13.7,18.4,13.7c19,0,23.2-6.2,30.2-20c0.7-1.2,1.3-2,2.2-2s1.3,0.5,1.3,1.8c0,4.8-1.7,17.7-4.2,26.7h-0.3
					c-4.7-2-7.2-2.2-55.3-2.2c-11,0-21.7,0.7-25.4,0.7c-1.7,0-2.5-0.7-2.5-2s0.8-2.2,3.2-2.5c7.5-1,11.5-2,15.9-4.8V23.5
					c-2.8-2-7.7-3.5-16.4-4c-1.7-0.2-2.3-1-2.3-2.3c0-1,0.5-2.3,3.2-2.3C233.8,14.8,248,15.5,255.8,15.5z"/>
				<path class="st0" d="M441.9,66.1c0,37.2-28.4,58.8-61.5,58.8c-36.6,0-60.8-23.2-60.8-55.9c0-33.1,25.6-56.6,61-56.6
					C416.7,12.3,441.9,36,441.9,66.1z M338.7,69.8c0,31.6,17,49.9,42.3,49.9c30.6,0,41.9-27.1,41.9-53.8c0-28.6-16.9-48.4-42.8-48.4
					C357.5,17.5,338.7,34.7,338.7,69.8z"/>
			</g>
		</g>
		<g>
			<g>
				<path class="st0" d="M513.3,121.7c-11,0-21.7,0.7-25.4,0.7c-1.7,0-2.5-0.7-2.5-2s0.8-2.2,3.2-2.5c7.5-1,11.5-2,15.9-4.8V23.5
					c-2.8-2-7.7-3.5-16.4-4c-1.7-0.2-2.3-1-2.3-2.3c0-1,0.5-2.3,3.2-2.3c1.8,0,14,0.7,21.9,0.7c8.9,0,20.2-1.3,29.9-1.3
					c21.4,0,35.9,10.5,35.9,24.7c0,11.9-6.7,18.4-14.9,22.2c10.4,2.5,23.2,11,23.2,26.6c0,20.2-14.2,34.7-44.3,34.7
					C530.8,122.4,521.1,121.7,513.3,121.7z M561.4,40c0-12.4-8.5-21-26.7-21c-5.8,0-11.2,1.3-13.7,2.5v39.6c3.2,0.3,6,0.5,10.4,0.5
					C549,61.6,561.4,55.9,561.4,40z M531.6,66.3c-3.7,0-7.5,0.3-10.7,0.7v39.6c0,6.2,2.8,11,18.7,11c13.7,0,28.7-6.7,28.7-28.1
					C568.4,75.8,556.5,66.3,531.6,66.3z"/>
				<path class="st0" d="M698.5,21.5c17.4,10.7,26.1,28.6,26.1,44.1c0,37.2-28.7,59.3-61.6,59.3c-12.7,0-23-2.7-31.6-7l-8.5,12.2
					c-1,1.3-1.5,2-2.7,2s-2.7-1.2-2.7-2.3c0-0.7,0.3-1.3,1-2.3l8.5-12.2c-16.9-10.9-24.7-29.2-24.7-46.3c0-33.1,25.6-56.6,61-56.6
					c12,0,22.2,2.7,30.7,6.8l8.4-12c1-1.3,1.5-2,2.7-2s2.7,1.2,2.7,2.3c0,0.7-0.3,1.3-1,2.3L698.5,21.5z M621.3,70.3
					c0,16.4,4.5,28.4,11.5,36.4L689,26.2c-6.8-5.5-15.5-8.7-25.9-8.7C639.7,17.5,621.3,35.2,621.3,70.3z M692.8,29.7l-56.3,80.7
					c7.3,6.3,16.9,9.4,26.6,9.4c31.7,0,42.4-27.9,42.4-53.8C705.5,51.1,701,38.4,692.8,29.7z"/>
				<path class="st0" d="M883.9,12.3c12.2,0,18.5,3.3,22.2,3.3c0.8,0,1.7-0.2,2.2-0.2c1,0,1.5,0.8,1.5,6.5c0,6.7-0.3,14.2-0.7,16.7
					c-0.2,1.2-0.7,2-2,2c-1,0-1.7-0.7-2-2.7c-2.3-13.4-8.7-20.9-23-20.9c-10.7,0-19.4,6.8-19.4,16.4c0,26.6,55.8,22.5,55.8,60
					c0,18-15.5,31.4-36.7,31.4c-10.2,0-25.6-3-32.9-8c-0.8-3.3-1.3-7.5-1.3-11.5c0-7.2,0.8-11.7,1.2-12.7s0.8-2.2,2.3-2.2
					c1.3,0,2,1.2,2.3,3.2c2.3,14.9,11,26.4,28.2,26.4c16.2,0,24.4-9.4,24.4-20.2c0-27.9-55.1-25.1-55.1-59
					C850.9,23.3,865.6,12.3,883.9,12.3z"/>
			</g>
		</g>
		<g>
			<g>
				<path class="st0" d="M771.4,69.1V113c2.8,2,8.4,4.2,17,4.7c1.7,0.2,2.3,1,2.3,2.3c0,1-0.5,2.3-3.2,2.3c-1.8,0-16-0.7-23.9-0.7
					c-11,0-21.7,0.7-25.4,0.7c-1.7,0-2.5-0.7-2.5-2s0.8-2.2,3.2-2.5c7.5-1,11.5-2,15.9-4.8V23.5c-2.8-2-7.7-3.5-16.4-4
					c-1.7-0.2-2.3-1-2.3-2.3c0-1,0.5-2.3,3.2-2.3c1.8,0,14,0.7,21.9,0.7c8.9,0,19.4-1.3,29.1-1.3c19,0,32.2,10.4,32.2,24.5
					c0,17-11.9,24.7-21.4,28.7c2.2,1,3.3,3.3,5.5,6.5l20.2,31.7c5.3,8.3,8.9,11.2,17.2,12c1.7,0.2,2.3,1,2.3,2.3
					c0,1-0.5,2.3-3.2,2.3c-1.8,0-7.8-0.7-14.2-0.7c-5.7,0-9,0.3-11.4,0.5c-1.5-1.5-2.3-2.7-3.5-4.7L790,76.8
					c-3.8-6.3-6-8.2-13.7-8.2C774.8,68.6,773,68.8,771.4,69.1z M771.4,63.4c3.2,0.7,6,0.7,10.4,0.7c17.7,0,24.2-8.4,24.2-24.2
					c0-12.4-8.5-20.7-25.4-20.7c-3,0-7.2,0.5-9.2,1.2V63.4z"/>
			</g>
		</g>
	</g>
</g>
</svg>
