<svg id="Layer_1" data-name="Layer 1" xmlns="http://www.w3.org/2000/svg" viewBox="0 0 931.55 184"><defs><style>.cls-1{fill:#fff;}</style></defs><title>Artboard 6</title><rect class="cls-1" x="211.4" y="167.61" width="496.06" height="3.54" rx="1.77" ry="1.77"/><path class="cls-1" d="M122.25,71.25c0,37.24-28.39,58.79-61.46,58.79C24.22,130,0,106.82,0,74.08,0,41,25.55,17.47,61,17.47,97,17.47,122.25,41.18,122.25,71.25ZM19,74.92c0,31.56,17,49.94,42.25,49.94,30.56,0,41.92-27.06,41.92-53.78,0-28.56-16.87-48.43-42.75-48.43C37.91,22.65,19,39.85,19,74.92Z"/><path class="cls-1" d="M177.69,17.47c12.19,0,18.54,3.34,22.21,3.34.83,0,1.67-.17,2.17-.17,1,0,1.5.83,1.5,6.51,0,6.68-.33,14.2-.67,16.7-.17,1.17-.67,2-2,2-1,0-1.67-.67-2-2.67-2.34-13.36-8.68-20.88-23-20.88-10.69,0-19.37,6.85-19.37,16.37,0,26.55,55.78,22.55,55.78,60,0,18-15.53,31.4-36.74,31.4-10.19,0-25.55-3-32.9-8a49.61,49.61,0,0,1-1.34-11.52c0-7.18.83-11.69,1.17-12.69s.83-2.17,2.34-2.17c1.34,0,2,1.17,2.34,3.17,2.34,14.86,11,26.39,28.22,26.39,16.2,0,24.38-9.35,24.38-20.21,0-27.89-55.11-25.05-55.11-59C144.62,28.49,159.32,17.47,177.69,17.47Z"/><path class="cls-1" d="M255.84,20.64c6.68,0,22.55-.67,24.22-.67s3,.67,3,2.17-1,2.34-3.51,2.5c-7.18.5-12,1.84-15.53,4v80.16c0,11.86.33,13.7,18.37,13.7,19,0,23.21-6.18,30.23-20,.67-1.17,1.34-2,2.17-2s1.34.5,1.34,1.84c0,4.84-1.67,17.7-4.17,26.72h-.33c-4.68-2-7.18-2.17-55.28-2.17-11,0-21.71.67-25.38.67q-2.5,0-2.5-2c0-1.34.83-2.17,3.17-2.5,7.52-1,11.52-2,15.87-4.84V28.66c-2.84-2-7.68-3.51-16.37-4-1.67-.17-2.34-1-2.34-2.34,0-1,.5-2.34,3.17-2.34C233.8,20,248,20.64,255.84,20.64Z"/><path class="cls-1" d="M441.88,71.25c0,37.24-28.39,58.79-61.46,58.79-36.57,0-60.79-23.21-60.79-55.95,0-33.07,25.55-56.62,61-56.62C416.67,17.47,441.88,41.18,441.88,71.25ZM338.67,74.92c0,31.56,17,49.94,42.25,49.94,30.56,0,41.92-27.06,41.92-53.78,0-28.56-16.87-48.43-42.75-48.43C357.55,22.65,338.67,39.85,338.67,74.92Z"/><path class="cls-1" d="M513.27,126.86c-11,0-21.71.67-25.38.67q-2.5,0-2.5-2c0-1.34.83-2.17,3.17-2.5,7.52-1,11.52-2,15.87-4.84V28.66c-2.84-2-7.68-3.51-16.37-4-1.67-.17-2.34-1-2.34-2.34,0-1,.5-2.34,3.17-2.34,1.84,0,14,.67,21.88.67,8.85,0,20.21-1.34,29.89-1.34,21.38,0,35.91,10.52,35.91,24.72,0,11.86-6.68,18.37-14.86,22.21,10.35,2.51,23.21,11,23.21,26.55,0,20.21-14.2,34.74-44.26,34.74C530.8,127.53,521.12,126.86,513.27,126.86Zm48.1-81.67c0-12.36-8.52-21-26.72-21A36.23,36.23,0,0,0,521,26.65V66.24a91.27,91.27,0,0,0,10.35.5C549,66.74,561.37,61.06,561.37,45.19ZM531.64,71.41a104.81,104.81,0,0,0-10.69.67v39.58c0,6.18,2.84,11,18.71,11,13.69,0,28.72-6.68,28.72-28.06C568.38,80.93,556.52,71.41,531.64,71.41Z"/><path class="cls-1" d="M698.47,26.65c17.37,10.69,26.05,28.56,26.05,44.09C724.53,108,695.8,130,662.9,130c-12.69,0-23-2.67-31.56-7l-8.52,12.19c-1,1.34-1.5,2-2.67,2a2.86,2.86,0,0,1-2.67-2.34,4.44,4.44,0,0,1,1-2.34L627,120.35c-16.87-10.86-24.72-29.23-24.72-46.26,0-33.07,25.55-56.62,61-56.62A69,69,0,0,1,694,24.32l8.35-12c1-1.34,1.5-2,2.67-2a2.86,2.86,0,0,1,2.67,2.34,4.45,4.45,0,0,1-1,2.34ZM621.31,75.42c0,16.37,4.51,28.39,11.52,36.41L689,31.33c-6.85-5.51-15.53-8.68-25.89-8.68C639.69,22.65,621.31,40.35,621.31,75.42Zm71.48-40.58L636.51,115.5c7.35,6.35,16.87,9.35,26.55,9.35,31.73,0,42.42-27.89,42.42-53.78C705.49,56.21,701,43.52,692.79,34.84Z"/><path class="cls-1" d="M883.94,17.47c12.19,0,18.54,3.34,22.21,3.34.83,0,1.67-.17,2.17-.17,1,0,1.5.83,1.5,6.51,0,6.68-.33,14.2-.67,16.7-.17,1.17-.67,2-2,2-1,0-1.67-.67-2-2.67-2.34-13.36-8.68-20.88-23-20.88-10.69,0-19.37,6.85-19.37,16.37,0,26.55,55.78,22.55,55.78,60,0,18-15.53,31.4-36.74,31.4-10.19,0-25.55-3-32.9-8a49.61,49.61,0,0,1-1.34-11.52c0-7.18.83-11.69,1.17-12.69s.83-2.17,2.34-2.17c1.34,0,2,1.17,2.34,3.17,2.34,14.86,11,26.39,28.22,26.39,16.2,0,24.38-9.35,24.38-20.21,0-27.89-55.11-25.05-55.11-59C850.87,28.49,865.57,17.47,883.94,17.47Z"/><path class="cls-1" d="M771.45,74.25v43.92c2.84,2,8.35,4.18,17,4.68,1.67.17,2.34,1,2.34,2.34,0,1-.5,2.34-3.17,2.34-1.84,0-16-.67-23.88-.67-11,0-21.71.67-25.38.67q-2.5,0-2.5-2c0-1.34.83-2.17,3.17-2.5,7.52-1,11.52-2,15.87-4.84V28.66c-2.84-2-7.68-3.51-16.37-4-1.67-.17-2.34-1-2.34-2.34,0-1,.5-2.34,3.17-2.34,1.84,0,14,.67,21.88.67,8.85,0,19.37-1.34,29.06-1.34,19,0,32.23,10.35,32.23,24.55,0,17-11.86,24.72-21.38,28.73,2.17,1,3.34,3.34,5.51,6.51l20.21,31.73c5.34,8.35,8.85,11.19,17.2,12,1.67.17,2.34,1,2.34,2.34,0,1-.5,2.34-3.17,2.34-1.84,0-7.85-.67-14.2-.67-5.68,0-9,.33-11.36.5a20.15,20.15,0,0,1-3.51-4.68L790,81.93c-3.84-6.35-6-8.18-13.7-8.18A23.85,23.85,0,0,0,771.45,74.25Zm0-5.68a48.2,48.2,0,0,0,10.35.67C799.51,69.24,806,60.89,806,45c0-12.36-8.52-20.71-25.38-20.71a36.12,36.12,0,0,0-9.19,1.17Z"/></svg>